<svg version="1.1" id="Layer_1" xmlns="http://www.w3.org/2000/svg" xmlns:xlink="http://www.w3.org/1999/xlink" x="0px" y="0px"
	 width="100%" viewBox="0 0 1024 576" enable-background="new 0 0 1024 576" xml:space="preserve">
<path fill="#000000" opacity="1.000000" stroke="none" 
	d="
M613.086426,334.165863 
	C601.811157,338.054138 590.359680,338.861694 578.905212,341.202454 
	C578.259827,337.220184 581.034546,336.566040 583.129333,335.664612 
	C597.228088,329.597382 612.075439,325.658508 626.510315,320.539978 
	C636.869873,316.866577 647.265320,313.292114 657.679443,309.776276 
	C660.863586,308.701385 662.894165,307.129242 660.968872,303.618469 
	C650.229797,284.035339 644.793823,262.020203 632.976318,242.922760 
	C623.000000,226.800919 609.195068,214.825745 593.168335,205.094772 
	C589.108459,202.629730 584.827881,203.219437 580.540466,203.412064 
	C552.735962,204.661240 524.917542,203.937714 497.105743,203.948532 
	C494.545837,203.949524 492.643188,204.808517 490.620483,205.959930 
	C470.078918,217.653015 455.501617,234.770462 445.349823,255.865479 
	C437.766541,271.623199 430.304230,287.439148 422.808624,303.238922 
	C422.388947,304.123535 422.157288,305.097290 421.801636,306.136047 
	C423.958771,308.408173 426.862915,308.783508 429.455414,309.659821 
	C452.171478,317.338379 474.936157,324.873535 497.630737,332.614563 
	C501.724548,334.010925 506.119202,335.271301 509.024567,339.112885 
	C506.770325,341.466553 504.532990,340.320221 502.548767,340.055756 
	C472.441711,336.042908 444.013824,326.047272 415.772522,315.450470 
	C409.345612,313.039001 409.425903,312.091278 411.932434,305.903778 
	C416.808655,293.866394 421.823395,281.909393 427.620331,270.276978 
	C429.973297,265.555359 429.262573,260.431305 428.111816,255.551376 
	C421.191406,226.204941 415.704254,196.575958 410.394501,166.909866 
	C409.105743,159.709549 407.790955,152.513672 406.555664,145.304199 
	C406.334320,144.012619 406.229462,142.629257 406.438873,141.348450 
	C407.233917,136.484879 409.862366,135.220932 413.946655,137.891602 
	C436.949188,152.932663 459.915558,168.029068 482.872131,183.140228 
	C487.044617,185.886734 491.148773,188.740891 495.217773,191.639038 
	C497.343567,193.153122 499.594330,193.820419 502.211914,193.812759 
	C529.706848,193.732254 557.202087,193.675949 584.697083,193.721115 
	C588.426941,193.727234 591.381226,192.266998 594.390381,190.336578 
	C621.312866,173.065628 648.268066,155.845551 675.260803,138.684631 
	C677.963867,136.966125 680.576904,134.728470 683.898926,134.841751 
	C684.931091,135.775818 684.705322,136.602722 684.468933,137.398514 
	C674.835999,169.831329 668.900085,203.130783 661.333374,236.047867 
	C659.581299,243.669754 657.906677,251.312881 655.954468,258.883850 
	C655.031616,262.462860 655.213379,265.674805 656.818909,269.029175 
	C662.859070,281.648102 668.666565,294.378876 674.771912,306.965607 
	C676.242126,309.996521 676.324158,311.867950 672.819580,313.102234 
	C653.031006,320.071533 633.259644,327.089813 613.086426,334.165863 
M629.324524,177.889343 
	C619.726807,184.243393 609.497437,189.670212 599.450378,197.172516 
	C620.531311,209.935837 636.259644,226.424820 648.102112,248.102722 
	C651.031372,233.818649 653.573608,221.126068 656.247498,208.461319 
	C659.305298,193.978287 662.524048,179.529160 665.560425,165.041748 
	C666.062012,162.648605 666.720581,159.718170 664.422607,158.033737 
	C661.932312,156.208405 659.693542,158.461121 657.684143,159.725693 
	C648.388123,165.576187 639.172180,171.554031 629.324524,177.889343 
M458.005981,179.540833 
	C445.898560,172.143646 434.254578,163.970871 420.354797,156.524597 
	C426.387360,187.609680 432.157318,217.341476 437.995361,247.424301 
	C440.651917,246.108841 441.075012,244.578873 441.807709,243.308105 
	C444.126160,239.287048 445.807129,234.729492 448.785583,231.289337 
	C458.045074,220.594406 468.012329,210.593933 479.990387,202.791367 
	C484.935120,199.570312 484.786041,197.060089 479.921234,193.848267 
	C472.842926,189.175049 465.711945,184.581650 458.005981,179.540833 
z"/>
<path fill="#000000" opacity="1.000000" stroke="none" 
	d="
M540.107544,325.034729 
	C550.094543,325.107483 549.832153,325.000977 553.238953,316.608978 
	C557.457947,306.216187 559.973694,295.072876 568.361511,286.569916 
	C582.158813,272.583252 598.114319,267.680542 617.078857,273.174103 
	C621.671509,274.504547 626.211365,276.017151 631.609436,277.707031 
	C623.539795,289.351044 616.505493,300.740540 604.507507,307.831848 
	C599.371155,310.867615 594.067261,313.055878 587.939697,312.064392 
	C583.463745,311.340179 579.170166,310.055634 575.428894,307.388580 
	C572.214844,305.097351 569.956299,305.306152 568.893921,309.530670 
	C567.108093,316.631683 563.260864,323.040039 561.897095,330.298767 
	C561.695374,331.372406 561.015625,332.515717 560.227478,333.292419 
	C556.622192,336.845367 554.159119,341.215912 551.396667,345.363220 
	C547.049927,351.888977 547.725037,354.718353 554.505310,359.073181 
	C559.569214,362.325653 565.494324,363.737366 570.768860,366.393311 
	C571.297791,369.245453 569.212036,370.461670 567.718994,371.869843 
	C561.833008,377.421234 554.883179,381.359680 547.565674,384.659241 
	C543.439697,386.519653 539.113647,386.498413 534.862732,385.107697 
	C529.596008,383.384674 524.753662,380.742096 520.403137,377.341614 
	C515.156982,373.241028 515.462341,368.860809 521.120850,365.546783 
	C525.420166,363.028717 530.078918,361.114166 533.695618,357.502472 
	C536.573181,354.628876 537.571228,351.917389 534.210083,348.587921 
	C525.192688,339.655426 520.545959,328.414917 517.510925,316.343842 
	C516.904602,313.932648 516.098389,311.545288 515.118530,309.260956 
	C513.804138,306.196930 511.500305,305.027374 508.240448,306.410248 
	C507.627197,306.670410 506.984894,306.875397 506.400879,307.189301 
	C492.859436,314.467957 481.322571,309.983063 470.628845,301.001953 
	C465.760529,296.913300 461.747498,291.986023 457.870728,286.981537 
	C455.136475,283.451904 455.705322,280.167084 459.190765,277.614349 
	C471.022369,268.948975 494.281189,268.817505 506.857697,276.887299 
	C516.360352,282.984772 522.054993,291.562134 525.284485,302.104980 
	C526.941833,307.515381 529.165894,312.804596 530.255005,318.322052 
	C531.370972,323.975677 534.378784,325.769958 540.107544,325.034729 
M604.445801,296.895538 
	C606.996155,294.801270 609.880920,292.951904 611.245850,289.813477 
	C612.253601,287.496552 612.654175,284.828308 610.704590,282.823029 
	C608.835632,280.900726 606.160156,280.967743 603.678650,281.357269 
	C600.816528,281.806488 600.873657,284.404083 600.649048,286.412476 
	C600.301514,289.520355 600.310059,292.677307 600.318420,295.813049 
	C600.326782,298.931671 602.021423,298.415436 604.445801,296.895538 
M485.687958,295.987640 
	C485.791077,294.181549 486.041840,292.369141 485.964508,290.570801 
	C485.831482,287.476929 486.188324,283.632538 482.572418,282.536621 
	C478.843994,281.406555 474.776489,281.571960 471.674530,284.801239 
	C474.910095,290.805542 480.891663,295.900726 485.687958,295.987640 
M533.916382,368.953857 
	C531.606873,370.166626 532.045776,371.162750 534.036621,372.333374 
	C537.584961,374.419830 541.335022,375.391815 545.400391,374.621735 
	C547.105713,374.298737 549.341309,374.309357 549.876099,372.218933 
	C550.326050,370.460358 548.710693,369.281036 547.608215,368.072174 
	C542.960022,362.975403 542.966064,362.984833 537.416504,366.829407 
	C536.471375,367.484161 535.445740,368.022827 533.916382,368.953857 
M589.005859,293.343750 
	C588.942993,290.512573 589.175476,287.435425 586.196899,285.857849 
	C583.454773,284.405487 581.528320,286.698425 579.520264,288.006989 
	C577.910950,289.055725 575.566406,290.194214 576.754028,292.588867 
	C578.477722,296.064575 581.806458,297.954437 585.480408,298.568512 
	C588.528259,299.077942 588.564270,296.273651 589.005859,293.343750 
M495.302094,288.163513 
	C495.295532,290.966827 495.265350,293.770386 495.292664,296.573364 
	C495.305817,297.923920 495.406799,299.494354 497.207764,299.450317 
	C500.061066,299.380524 502.922455,298.659485 504.843048,296.490234 
	C506.627808,294.474396 505.467987,291.975769 504.499084,289.966675 
	C502.635956,286.103394 497.783539,284.853851 495.302094,288.163513 
z"/>
<path fill="#000000" opacity="1.000000" stroke="none" 
	d="
M606.745483,358.165710 
	C630.749512,367.716339 654.404724,377.098358 678.039001,386.532806 
	C680.716553,387.601624 684.297974,388.264191 682.819458,392.584961 
	C681.442383,396.609375 678.191711,396.444305 674.991272,395.487671 
	C662.703369,391.814636 650.934448,386.710968 638.985107,382.118530 
	C621.598145,375.436310 604.426331,368.218903 587.485474,360.459900 
	C584.446350,359.067963 581.127563,358.605194 577.832275,358.051147 
	C574.984985,357.572388 571.712524,356.456848 572.291809,352.925537 
	C572.878479,349.349396 575.783813,347.986115 579.529480,348.775574 
	C588.870544,350.744232 597.493896,354.769592 606.745483,358.165710 
z"/>
<path fill="#000000" opacity="1.000000" stroke="none" 
	d="
M469.982849,362.871216 
	C483.718262,357.686249 496.713074,351.452850 510.907898,348.286133 
	C511.831818,352.392761 509.434784,353.224426 507.760773,354.320953 
	C498.202301,360.581818 487.328247,364.037140 476.902435,368.397308 
	C456.622101,376.878754 436.178070,384.968994 415.795502,393.205566 
	C414.563599,393.703339 413.296021,394.141235 412.010040,394.470245 
	C409.841156,395.025208 408.439026,393.769012 407.564514,392.071167 
	C406.477448,389.960602 407.758392,388.437653 409.521912,387.627686 
	C414.060730,385.543182 418.669739,383.603851 423.298645,381.724609 
	C438.730438,375.459656 454.183258,369.246460 469.982849,362.871216 
z"/>
<path fill="#000000" opacity="1.000000" stroke="none" 
	d="
M614.947144,349.113647 
	C602.814392,348.788544 591.131653,348.782288 579.256897,345.486877 
	C581.300598,341.761475 584.280884,341.936615 586.925903,341.879272 
	C596.054077,341.681427 605.187195,341.725372 614.316833,341.579590 
	C620.288330,341.484222 626.256592,341.198517 632.227356,341.041412 
	C634.835327,340.972809 637.414551,341.146271 640.408691,342.793762 
	C633.052368,350.554199 623.721497,347.833344 614.947144,349.113647 
z"/>
<path fill="#000000" opacity="1.000000" stroke="none" 
	d="
M493.440857,347.480835 
	C478.371246,348.120392 463.731049,349.820160 449.234253,346.312469 
	C447.780151,345.960632 446.061371,345.897369 446.003937,343.886475 
	C445.941406,341.697540 447.725983,341.675385 449.192688,341.679688 
	C466.681519,341.730927 484.170654,341.788574 501.658356,341.973724 
	C503.894470,341.997437 506.122772,342.753540 508.398163,343.864532 
	C504.265808,348.212372 498.765900,346.572144 493.440857,347.480835 
z"/>
</svg>